<?xml version="1.0" standalone="no"?>
<!DOCTYPE svg PUBLIC "-//W3C//DTD SVG 20010904//EN"
 "http://www.w3.org/TR/2001/REC-SVG-20010904/DTD/svg10.dtd">
<svg version="1.0" xmlns="http://www.w3.org/2000/svg"
 width="230.000000pt" height="230.000000pt" viewBox="0 0 230.000000 230.000000"
 preserveAspectRatio="xMidYMid meet">
<metadata>
Created by potrace 1.14, written by Peter Selinger 2001-2017
</metadata>
<g transform="translate(0.000000,230.000000) scale(0.100000,-0.100000)"
fill="#000000" stroke="none">
<path d="M480 1844 c-36 -30 -102 -80 -147 -112 -75 -52 -95 -75 -75 -84 5 -2
94 -105 109 -127 5 -7 57 25 120 71 l52 38 10 -33 c12 -37 161 -591 168 -624
l5 -21 66 23 c73 26 78 34 61 115 -4 19 -10 55 -14 80 -3 25 -8 52 -10 60 -2
8 -6 33 -10 55 -5 33 -66 401 -80 485 -3 14 -8 45 -11 70 -3 25 -7 46 -9 48
-1 2 -40 5 -86 7 l-84 4 -65 -55z"/>
<path d="M1249 1789 c-140 -21 -204 -124 -202 -329 1 -206 66 -351 173 -386
32 -10 112 -7 164 7 46 12 132 55 160 81 10 10 24 15 29 11 6 -3 7 -2 4 4 -7
11 28 44 38 35 4 -4 5 -2 4 3 -2 6 9 30 23 55 116 194 58 368 -157 471 -88 42
-166 58 -236 48z m178 -156 c20 -9 44 -30 54 -47 33 -55 22 -174 -28 -287 -51
-115 -155 -143 -198 -53 -30 64 -20 261 17 339 16 33 61 65 91 65 16 0 45 -8
64 -17z"/>
<path d="M1995 1269 c-4 -6 -5 -12 -2 -15 2 -3 7 2 10 11 7 17 1 20 -8 4z"/>
<path d="M1730 1260 c0 -5 5 -10 11 -10 5 0 7 5 4 10 -3 6 -8 10 -11 10 -2 0
-4 -4 -4 -10z"/>
<path d="M1761 1220 c-14 -9 -10 -60 5 -60 8 0 17 0 22 0 4 -1 10 14 13 32 4
28 2 34 -13 34 -10 0 -23 -3 -27 -6z"/>
<path d="M1710 1199 c0 -5 5 -7 10 -4 6 3 10 8 10 11 0 2 -4 4 -10 4 -5 0 -10
-5 -10 -11z"/>
<path d="M1670 1160 c0 -5 5 -10 11 -10 5 0 7 5 4 10 -3 6 -8 10 -11 10 -2 0
-4 -4 -4 -10z"/>
<path d="M1894 1158 c-4 -7 -4 -10 1 -6 4 4 15 2 24 -5 14 -11 14 -10 2 6 -16
20 -18 21 -27 5z"/>
<path d="M1617 1135 c-4 -8 -3 -16 1 -19 4 -3 9 4 9 15 2 23 -3 25 -10 4z"/>
<path d="M1855 1140 c-3 -5 -1 -10 4 -10 6 0 11 5 11 10 0 6 -2 10 -4 10 -3 0
-8 -4 -11 -10z"/>
<path d="M2032 1132 c1 -4 -4 -18 -11 -31 -8 -14 -9 -21 -2 -17 6 4 11 1 11
-6 0 -9 3 -9 10 2 5 8 10 11 10 5 0 -5 25 -21 55 -35 30 -14 55 -27 55 -30 0
-3 -21 -5 -47 -4 -28 0 -48 5 -48 11 0 6 -4 15 -9 20 -5 4 -6 3 -3 -3 9 -16
-15 -35 -31 -25 -7 4 -34 5 -61 1 -27 -3 -58 -3 -70 2 -13 4 -21 3 -21 -3 0
-6 -8 -5 -21 2 -12 6 -19 7 -15 1 3 -6 -2 -8 -13 -5 -21 5 -36 43 -18 43 8 0
8 3 0 11 -6 6 -9 17 -7 24 3 8 -6 14 -23 17 -28 4 -28 3 -25 -44 3 -42 2 -47
-17 -47 -12 -1 -30 -1 -42 -2 -16 0 -20 -6 -17 -27 3 -25 6 -27 41 -24 31 3
37 0 37 -15 0 -11 -6 -25 -12 -32 -10 -11 -10 -13 0 -7 9 6 12 -19 12 -111 0
-81 4 -124 13 -133 6 -8 2 -6 -10 4 -13 11 -23 25 -23 31 0 7 -7 16 -16 19 -9
4 -14 9 -11 13 4 3 -2 13 -12 22 -10 9 -17 24 -15 33 1 11 -3 15 -12 11 -8 -3
-14 -9 -14 -15 0 -5 -4 -7 -9 -4 -5 4 -11 0 -14 -6 -4 -12 39 -79 56 -86 4 -2
3 -10 -4 -18 -10 -12 -9 -13 6 -8 13 5 16 4 11 -4 -7 -11 6 -17 27 -13 5 1 6
-3 2 -9 -11 -18 25 -67 49 -64 11 1 25 3 29 3 5 1 6 5 3 10 -4 5 -3 11 1 13
15 6 114 208 103 208 -6 0 -9 4 -6 8 2 4 -4 8 -14 9 -12 1 -24 -9 -32 -27 -7
-16 -16 -26 -22 -23 -5 3 -6 2 -3 -4 4 -6 -2 -27 -13 -48 l-19 -38 0 136 c0
75 -3 142 -7 148 -4 8 -3 9 5 5 6 -4 93 -7 194 -7 181 1 182 1 157 -18 -16
-13 -29 -16 -36 -10 -8 6 -10 2 -9 -15 2 -15 -1 -23 -8 -21 -17 6 -56 -26 -39
-32 6 -3 12 -11 12 -20 0 -8 6 -13 13 -10 6 2 11 10 9 16 -1 7 2 10 7 7 5 -4
16 0 24 8 11 11 17 12 26 3 9 -9 11 -8 6 6 -5 12 -2 17 10 17 10 0 15 5 12 13
-3 7 3 14 14 15 11 1 27 3 38 4 11 1 17 8 14 15 -3 7 2 13 11 13 9 0 16 3 17
8 4 43 2 75 -5 79 -5 4 -6 1 -2 -5 12 -19 -6 -14 -72 21 -34 18 -59 37 -55 42
5 5 1 4 -7 -2 -11 -8 -18 -8 -27 2 -6 7 -10 16 -7 19 2 3 1 4 -2 2 -3 -2 -19
0 -34 4 -16 5 -29 5 -28 2z m223 -132 c-3 -5 -12 -10 -18 -10 -7 0 -6 4 3 10
19 12 23 12 15 0z"/>
<path d="M1813 1115 c0 -8 4 -12 9 -9 5 3 6 10 3 15 -9 13 -12 11 -12 -6z"/>
<path d="M2173 1115 c0 -8 4 -12 9 -9 5 3 6 10 3 15 -9 13 -12 11 -12 -6z"/>
<path d="M1937 1095 c-4 -8 -3 -16 1 -19 4 -3 9 4 9 15 2 23 -3 25 -10 4z"/>
<path d="M2227 1099 c7 -7 15 -10 18 -7 3 3 -2 9 -12 12 -14 6 -15 5 -6 -5z"/>
<path d="M1615 1060 c3 -5 8 -10 11 -10 2 0 4 5 4 10 0 6 -5 10 -11 10 -5 0
-7 -4 -4 -10z"/>
<path d="M1706 1058 c3 -5 10 -6 15 -3 13 9 11 12 -6 12 -8 0 -12 -4 -9 -9z"/>
<path d="M1575 1041 c-3 -5 -2 -12 3 -15 5 -3 9 1 9 9 0 17 -3 19 -12 6z"/>
<path d="M1656 1038 c3 -4 11 -5 19 -1 21 7 19 12 -4 10 -11 0 -18 -5 -15 -9z"/>
<path d="M1910 1039 c0 -5 5 -7 10 -4 6 3 10 8 10 11 0 2 -4 4 -10 4 -5 0 -10
-5 -10 -11z"/>
<path d="M1955 1040 c3 -5 8 -10 11 -10 2 0 4 5 4 10 0 6 -5 10 -11 10 -5 0
-7 -4 -4 -10z"/>
<path d="M1560 995 c0 -13 7 -25 18 -27 27 -7 42 2 42 27 0 20 -5 24 -30 23
-24 -1 -30 -5 -30 -23z"/>
<path d="M1243 982 c-12 -2 -40 -20 -63 -40 -73 -65 -96 -191 -55 -299 17 -44
70 -97 114 -115 32 -12 110 -12 144 1 23 9 24 12 14 55 l-10 45 -63 -6 c-60
-6 -64 -5 -93 25 -54 54 -45 63 64 59 61 -3 98 0 104 7 9 11 7 83 -4 146 -17
90 -74 136 -152 122z m60 -136 c20 -43 10 -52 -53 -51 -43 0 -45 1 -43 28 3
38 20 57 52 57 21 0 31 -8 44 -34z"/>
<path d="M863 959 c-125 -38 -164 -233 -68 -337 31 -35 37 -37 94 -37 59 0 61
-1 61 -27 0 -55 -46 -71 -125 -43 -45 16 -55 9 -55 -42 0 -28 4 -33 47 -47 26
-9 73 -16 106 -16 51 0 62 4 88 29 29 30 33 46 31 136 -1 22 -2 115 -3 207 -1
140 -4 168 -17 173 -30 11 -128 14 -159 4z m76 -105 c4 -10 6 -52 6 -93 0 -82
-11 -99 -58 -87 -35 8 -56 51 -52 103 4 51 20 82 48 92 32 12 49 7 56 -15z"/>
<path d="M510 943 c-14 -2 -39 -9 -56 -14 -29 -9 -31 -12 -25 -42 l7 -32 61 3
c52 3 62 1 67 -15 9 -29 3 -38 -29 -39 -16 -1 -39 -2 -50 -3 -37 -2 -76 -44
-85 -88 -14 -82 46 -133 163 -138 32 -1 69 0 83 3 l26 5 -4 141 c-4 148 -13
185 -52 205 -24 13 -70 19 -106 14z m66 -244 c0 -34 -12 -47 -41 -41 -32 6
-48 26 -40 51 12 39 80 31 81 -10z"/>
<path d="M1656 918 c3 -5 10 -6 15 -3 13 9 11 12 -6 12 -8 0 -12 -4 -9 -9z"/>
<path d="M1950 920 c0 -5 5 -10 11 -10 5 0 7 5 4 10 -3 6 -8 10 -11 10 -2 0
-4 -4 -4 -10z"/>
<path d="M130 913 c-14 -3 -41 -8 -60 -13 l-35 -9 0 -93 c-1 -102 -10 -182
-25 -222 -9 -24 -7 -26 31 -36 56 -15 66 -9 74 45 7 41 10 45 29 39 59 -19
129 -8 157 24 44 51 49 160 12 211 -34 45 -105 66 -183 54z m90 -83 c30 -30
31 -103 2 -133 -15 -14 -27 -17 -56 -12 l-36 7 0 79 0 79 35 0 c22 0 43 -8 55
-20z"/>
<path d="M1535 900 c3 -5 8 -10 11 -10 2 0 4 5 4 10 0 6 -5 10 -11 10 -5 0 -7
-4 -4 -10z"/>
<path d="M1695 900 c-3 -5 -1 -10 4 -10 6 0 11 5 11 10 0 6 -2 10 -4 10 -3 0
-8 -4 -11 -10z"/>
<path d="M1870 885 c0 -7 30 -13 34 -7 3 4 -4 9 -15 9 -10 1 -19 0 -19 -2z"/>
<path d="M1973 875 c0 -8 4 -12 9 -9 5 3 6 10 3 15 -9 13 -12 11 -12 -6z"/>
<path d="M2246 878 c3 -5 10 -6 15 -3 13 9 11 12 -6 12 -8 0 -12 -4 -9 -9z"/>
<path d="M1536 838 c3 -5 10 -6 15 -3 13 9 11 12 -6 12 -8 0 -12 -4 -9 -9z"/>
<path d="M2000 840 c-12 -7 -10 -9 7 -7 12 0 19 5 17 9 -6 10 -6 10 -24 -2z"/>
<path d="M2213 829 c-2 -23 3 -25 10 -4 4 8 3 16 -1 19 -4 3 -9 -4 -9 -15z"/>
<path d="M1615 820 c3 -5 8 -10 11 -10 2 0 4 5 4 10 0 6 -5 10 -11 10 -5 0 -7
-4 -4 -10z"/>
<path d="M1695 820 c3 -5 8 -10 11 -10 2 0 4 5 4 10 0 6 -5 10 -11 10 -5 0 -7
-4 -4 -10z"/>
<path d="M2050 820 c0 -5 5 -10 11 -10 5 0 7 5 4 10 -3 6 -8 10 -11 10 -2 0
-4 -4 -4 -10z"/>
<path d="M2130 819 c0 -5 5 -7 10 -4 6 3 10 8 10 11 0 2 -4 4 -10 4 -5 0 -10
-5 -10 -11z"/>
<path d="M1510 786 c0 -2 7 -7 16 -10 8 -3 12 -2 9 4 -6 10 -25 14 -25 6z"/>
<path d="M1996 773 c-6 -14 -5 -15 5 -6 7 7 10 15 7 18 -3 3 -9 -2 -12 -12z"/>
<path d="M2055 761 c-3 -5 -2 -12 3 -15 5 -3 9 1 9 9 0 17 -3 19 -12 6z"/>
<path d="M2120 760 c-12 -7 -10 -9 7 -7 12 0 19 5 17 9 -6 10 -6 10 -24 -2z"/>
<path d="M1915 711 c-3 -5 -2 -12 3 -15 5 -3 9 1 9 9 0 17 -3 19 -12 6z"/>
<path d="M1973 685 c0 -8 4 -12 9 -9 5 3 6 10 3 15 -9 13 -12 11 -12 -6z"/>
<path d="M1875 680 c-3 -5 -1 -10 4 -10 6 0 11 5 11 10 0 6 -2 10 -4 10 -3 0
-8 -4 -11 -10z"/>
<path d="M2253 675 c0 -8 4 -12 9 -9 5 3 6 10 3 15 -9 13 -12 11 -12 -6z"/>
<path d="M1526 642 c-3 -5 1 -9 9 -9 8 0 12 4 9 9 -3 4 -7 8 -9 8 -2 0 -6 -4
-9 -8z"/>
<path d="M1855 641 c-3 -5 -2 -12 3 -15 5 -3 9 1 9 9 0 17 -3 19 -12 6z"/>
<path d="M1950 639 c0 -5 5 -7 10 -4 6 3 10 8 10 11 0 2 -4 4 -10 4 -5 0 -10
-5 -10 -11z"/>
<path d="M2255 620 c-3 -5 -1 -10 4 -10 6 0 11 5 11 10 0 6 -2 10 -4 10 -3 0
-8 -4 -11 -10z"/>
<path d="M1975 611 c-3 -5 -2 -12 3 -15 5 -3 9 1 9 9 0 17 -3 19 -12 6z"/>
<path d="M2213 571 c0 -11 5 -18 9 -15 4 3 5 11 1 19 -7 21 -12 19 -10 -4z"/>
<path d="M2135 571 c-3 -5 -2 -12 3 -15 5 -3 9 1 9 9 0 17 -3 19 -12 6z"/>
<path d="M2256 562 c-2 -4 -1 -14 4 -22 7 -11 9 -9 7 8 -1 24 -3 26 -11 14z"/>
<path d="M1547 539 c7 -7 15 -10 18 -7 3 3 -2 9 -12 12 -14 6 -15 5 -6 -5z"/>
</g>
</svg>
